<svg width="1582" height="898" viewBox="0 0 1582 898" fill="none" xmlns="http://www.w3.org/2000/svg">
<g filter="url(#filter0_d_65_15)">
<g clip-path="url(#clip0_65_15)">
<g filter="url(#filter1_d_65_15)">
<rect x="4" width="1574" height="890" rx="20" fill="#CFE3C5"/>
</g>
<path d="M99.8685 791.174C67.5094 716.677 104.534 656.167 127.012 626.496C127.012 626.496 165.604 623.66 164.027 625.288C119.264 671.504 107.018 730.406 126.436 779.634C145.854 828.862 168.296 858.242 236.092 874.1C241.947 861.946 262.068 829.867 264.004 798.135C266.009 765.25 258.996 717.249 251.318 696.558C262.848 708.025 280.506 745.661 283.838 789.52C287.404 836.441 257.839 880.442 245.875 896.622C214.161 895.982 139.029 881.33 99.8685 791.174Z" fill="#FAFAFA" fill-opacity="0.5"/>
<path fill-rule="evenodd" clip-rule="evenodd" d="M202.417 827.99C202.577 828.339 202.673 828.636 202.698 828.883L202.417 827.99Z" fill="#D9D9D9"/>
<path d="M204.083 628.523C193.816 635.042 173.296 670.727 168.364 718.175C161.412 785.058 198.755 819.984 202.417 827.99L202.149 827.136C187.199 779.516 181.53 761.461 186.855 724.559C190.098 702.082 201.852 668.62 214.619 652.778C233.257 654.978 266.599 663.573 291.593 685.243C332.004 720.279 342.239 774.98 332.644 816.216C324.967 849.205 295.932 885.781 285.168 898.694L322.617 893.549C331.876 877.171 355.219 843.156 361.108 813.619C370.999 764.016 345.857 692.563 298.944 661.456C261.413 636.57 220.066 629.132 204.083 628.523Z" fill="#FAFAFA" fill-opacity="0.5"/>
<path d="M721.343 188.391C746.398 111.131 814.204 90.2814 850.692 82.9194C850.692 82.9194 881.497 106.338 879.237 106.515C815.093 111.527 766.925 147.574 748.896 197.327C730.866 247.08 728.241 283.957 768.562 340.719C780.995 335.485 817.312 324.758 839.766 302.254C863.037 278.931 889.553 238.309 897.494 217.717C898.546 233.944 886.87 273.844 860.337 308.925C831.951 346.455 780.666 359.868 760.987 364.077C737.638 342.605 691.02 281.892 721.343 188.391Z" fill="#FAFAFA" fill-opacity="0.5"/>
<path fill-rule="evenodd" clip-rule="evenodd" d="M773.842 283.867C773.73 284.234 773.605 284.52 773.461 284.722L773.842 283.867Z" fill="#D9D9D9"/>
<path d="M907.121 135.454C895.11 133.544 856.108 146.71 821.004 179.012C771.522 224.543 776.395 275.442 773.842 283.867L774.206 283.049C794.52 237.459 802.222 220.173 830.639 196.036C847.948 181.335 878.908 164.033 898.964 160.608C911.478 174.595 930.782 203.107 935.172 235.894C942.272 288.905 913.737 336.682 879.249 361.241C851.659 380.887 805.685 389.085 789.069 391.639L820.546 412.571C838.327 406.423 878.339 396.377 902.305 378.135C942.552 347.501 971.002 277.299 956.427 222.93C944.768 179.434 918.698 146.489 907.121 135.454Z" fill="#FAFAFA" fill-opacity="0.5"/>
<path d="M1156.7 796.578C1129.07 720.201 1169.82 662.128 1194.11 633.923C1194.11 633.923 1232.8 633.51 1231.12 635.037C1183.56 678.358 1167.64 736.378 1183.94 786.725C1200.24 837.072 1220.8 867.8 1287.47 887.873C1294.07 876.11 1316.16 845.354 1320.08 813.806C1324.14 781.112 1320.15 732.765 1313.78 711.634C1324.57 723.801 1339.84 762.469 1340.42 806.45C1341.03 853.502 1308.77 895.565 1295.82 910.964C1264.21 908.339 1190.14 889.01 1156.7 796.578Z" fill="#FAFAFA" fill-opacity="0.5"/>
<path fill-rule="evenodd" clip-rule="evenodd" d="M1256.74 839.745C1256.88 840.103 1256.96 840.406 1256.97 840.654L1256.74 839.745Z" fill="#D9D9D9"/>
<path d="M1270.9 640.774C1260.25 646.637 1237.53 680.967 1229.64 728.013C1218.51 794.329 1253.59 831.526 1256.74 839.745L1256.53 838.876C1244.59 790.413 1240.07 772.039 1247.69 735.542C1252.34 713.313 1266.16 680.652 1279.9 665.641C1298.36 669.005 1331.1 679.671 1354.69 702.863C1392.82 740.362 1399.61 795.596 1387.45 836.151C1377.73 868.594 1346.46 903.279 1334.9 915.493L1372.6 912.703C1382.87 896.937 1408.3 864.451 1416.02 835.341C1429 786.456 1408.38 713.568 1363.51 679.584C1327.61 652.396 1286.81 642.382 1270.9 640.774Z" fill="#FAFAFA" fill-opacity="0.5"/>
</g>
</g>
<defs>
<filter id="filter0_d_65_15" x="0" y="0" width="1582" height="898" filterUnits="userSpaceOnUse" color-interpolation-filters="sRGB">
<feFlood flood-opacity="0" result="BackgroundImageFix"/>
<feColorMatrix in="SourceAlpha" type="matrix" values="0 0 0 0 0 0 0 0 0 0 0 0 0 0 0 0 0 0 127 0" result="hardAlpha"/>
<feOffset dy="4"/>
<feGaussianBlur stdDeviation="2"/>
<feComposite in2="hardAlpha" operator="out"/>
<feColorMatrix type="matrix" values="0 0 0 0 0 0 0 0 0 0 0 0 0 0 0 0 0 0 0.25 0"/>
<feBlend mode="normal" in2="BackgroundImageFix" result="effect1_dropShadow_65_15"/>
<feBlend mode="normal" in="SourceGraphic" in2="effect1_dropShadow_65_15" result="shape"/>
</filter>
<filter id="filter1_d_65_15" x="0" y="0" width="1582" height="898" filterUnits="userSpaceOnUse" color-interpolation-filters="sRGB">
<feFlood flood-opacity="0" result="BackgroundImageFix"/>
<feColorMatrix in="SourceAlpha" type="matrix" values="0 0 0 0 0 0 0 0 0 0 0 0 0 0 0 0 0 0 127 0" result="hardAlpha"/>
<feOffset dy="4"/>
<feGaussianBlur stdDeviation="2"/>
<feComposite in2="hardAlpha" operator="out"/>
<feColorMatrix type="matrix" values="0 0 0 0 0 0 0 0 0 0 0 0 0 0 0 0 0 0 0.25 0"/>
<feBlend mode="normal" in2="BackgroundImageFix" result="effect1_dropShadow_65_15"/>
<feBlend mode="normal" in="SourceGraphic" in2="effect1_dropShadow_65_15" result="shape"/>
</filter>
<clipPath id="clip0_65_15">
<rect x="4" width="1574" height="890" rx="20" fill="white"/>
</clipPath>
</defs>
</svg>
