<?xml version="1.0" encoding="UTF-8"?>
<svg version="1.1" xmlns="http://www.w3.org/2000/svg" width="459" height="454">
<path d="M0 0 C151.47 0 302.94 0 459 0 C459 149.82 459 299.64 459 454 C307.53 454 156.06 454 0 454 C0 304.18 0 154.36 0 0 Z " fill="#FEFEFE" transform="translate(0,0)"/>
<path d="M0 0 C12.87 0 25.74 0 39 0 C39 11.55 39 23.1 39 35 C42.96 35.33 46.92 35.66 51 36 C54.15337911 36.62550635 57.16347565 37.28084814 60.25 38.125 C61.05574463 38.34309326 61.86148926 38.56118652 62.69165039 38.78588867 C87.0035704 45.66012885 107.44850521 59.75556716 120.30078125 81.88671875 C121.0407408 83.21232508 121.77396436 84.54171664 122.5 85.875 C123.00793091 86.80252075 123.00793091 86.80252075 123.52612305 87.7487793 C125.47620741 91.48479951 126.5391358 94.81381684 127 99 C121.05679484 101.32291595 115.1206644 103.28923154 108.9375 104.875 C102.40134008 106.56217949 96.04667398 108.59694263 89.66015625 110.77758789 C83.66671374 112.81283944 77.6370808 114.57962411 71.52734375 116.23828125 C69.08540893 116.75693233 69.08540893 116.75693233 68 118 C65.14453125 118.375 65.14453125 118.375 62 118 C60.19921875 115.875 60.19921875 115.875 58.6875 113 C53.12359149 103.51939274 46.4252362 98.33080651 36 95 C35.01 94.67 34.02 94.34 33 94 C29.10906445 93.71502897 25.21270363 93.72230253 21.3125 93.6875 C19.71631836 93.64399414 19.71631836 93.64399414 18.08789062 93.59960938 C11.53307022 93.54697647 6.41869828 94.09632552 1 98 C-2.13942137 101.38091532 -3.89432816 103.62626605 -4.25 108.25 C-3.90954243 113.35686357 -2.49900322 116.40730908 1 120.125 C10.1165217 125.82282606 21.07526339 127.49065668 31.44284058 129.69158936 C48.27706628 133.27999888 64.66897569 137.52252343 81 143 C81.82717529 143.2688501 82.65435059 143.5377002 83.5065918 143.81469727 C102.28229276 149.93951495 117.28271246 162.77389936 127 180 C128.61417102 183.60235727 129.86844065 187.22148903 131 191 C131.25007812 191.67925537 131.50015625 192.35851074 131.7578125 193.05834961 C134.32595903 200.48360975 134.44797331 207.50840941 134.375 215.3125 C134.38660156 216.54162109 134.39820313 217.77074219 134.41015625 219.03710938 C134.3738684 230.49802084 132.48742255 241.16090091 127.4375 251.5 C127.09307861 252.21357666 126.74865723 252.92715332 126.39379883 253.66235352 C117.65476258 271.07234983 103.80361125 282.70448833 87 292 C86.14792969 292.49371094 85.29585937 292.98742187 84.41796875 293.49609375 C70.41970825 301.15101985 54.57238192 303.04056121 39 305 C39 316.88 39 328.76 39 341 C26.13 341 13.26 341 0 341 C0 329.12 0 317.24 0 305 C-4.62 304.67 -9.24 304.34 -14 304 C-16.96725247 303.36668336 -19.64822775 302.73671875 -22.5 301.8125 C-23.20721191 301.59255371 -23.91442383 301.37260742 -24.64306641 301.14599609 C-50.72903561 292.79778393 -71.5634463 277.03318394 -85 253 C-87.18104011 248.73507079 -89.13874299 244.41270658 -91 240 C-91.41378906 239.05640625 -91.82757813 238.1128125 -92.25390625 237.140625 C-94.07622446 232.84833542 -95.21611838 229.72135532 -95 225 C-72.77198995 220.4582191 -72.77198995 220.4582191 -62.125 219.0625 C-56.67194469 218.330463 -51.40758455 217.20591141 -46.0625 215.9375 C-38.02287249 214.04121527 -30.25550333 213.24352517 -22 213 C-21.70609375 213.78310547 -21.70609375 213.78310547 -21.40625 214.58203125 C-16.97513123 225.48793132 -10.92361471 234.11890205 0 239 C0.8971875 239.41121094 1.794375 239.82242188 2.71875 240.24609375 C15.76283603 245.2062791 32.74938348 245.19363622 45.79296875 240.265625 C48.98174919 238.43701462 51.34819668 236.30360663 53 233 C53.4015206 228.20491745 53.58509726 223.61762183 51.9375 219.0625 C42.39469586 208.90403108 23.555297 207.14091138 10.64282227 204.22875977 C1.62716116 202.18233223 -7.20501348 199.84329408 -16 197 C-16.78536133 196.75169434 -17.57072266 196.50338867 -18.37988281 196.24755859 C-34.82967272 191.00069818 -50.97756246 184.87660717 -63 172 C-63.77730469 171.19175781 -64.55460937 170.38351563 -65.35546875 169.55078125 C-71.8788276 162.24068565 -75.70176706 154.12571383 -79 145 C-79.27884033 144.25975586 -79.55768066 143.51951172 -79.8449707 142.75683594 C-82.28399963 135.64016773 -82.50237023 128.85332063 -82.4375 121.375 C-82.42847656 120.13459961 -82.41945313 118.89419922 -82.41015625 117.61621094 C-82.0295279 97.40590277 -75.43960641 80.18326792 -62 65 C-61.2265625 64.0203125 -60.453125 63.040625 -59.65625 62.03125 C-57.03956348 58.89122618 -54.02523994 56.46308564 -50.6875 54.125 C-50.07994873 53.69936768 -49.47239746 53.27373535 -48.84643555 52.83520508 C-34.16775958 42.81945331 -17.94023359 36 0 36 C0 24.12 0 12.24 0 0 Z " fill="#020202" transform="translate(207,55)"/>
<path d="M0 0 C0.66 0.33 1.32 0.66 2 1 C1.67 1.99 1.34 2.98 1 4 C0.2575 4.268125 -0.485 4.53625 -1.25 4.8125 C-5.04146115 6.44972186 -6.51450639 8.73335126 -9 12 C-9.66 11.34 -10.32 10.68 -11 10 C-7.50640535 6.40365256 -3.88901869 3.16548033 0 0 Z " fill="#171717" transform="translate(159,107)"/>
<path d="M0 0 C0.66 0.33 1.32 0.66 2 1 C0.88266271 2.50571657 -0.24410035 4.00444292 -1.375 5.5 C-2.00148437 6.3353125 -2.62796875 7.170625 -3.2734375 8.03125 C-3.84320313 8.6809375 -4.41296875 9.330625 -5 10 C-5.66 10 -6.32 10 -7 10 C-5.33248852 6.05860922 -2.77289351 3.2107188 0 0 Z " fill="#1F1F1F" transform="translate(146,119)"/>
<path d="M0 0 C0.66 0.33 1.32 0.66 2 1 C1.360625 1.268125 0.72125 1.53625 0.0625 1.8125 C-2.33131686 2.88667752 -2.33131686 2.88667752 -3 6 C-5.0625 7.1875 -5.0625 7.1875 -7 8 C-5.50902342 4.2047869 -3.24299151 2.38957269 0 0 Z " fill="#E3E3E3" transform="translate(211,150)"/>
</svg>
