<?xml version="1.0" encoding="UTF-8"?>
<svg id="Layer_1" data-name="Layer 1" xmlns="http://www.w3.org/2000/svg" version="1.1" viewBox="0 0 89.8 89.9">
  <defs>
    <style>
      .cls-1 {
        fill: #181818;
        stroke-width: 0px;
      }
    </style>
  </defs>
  <path class="cls-1" d="M81.4,40.4v-13.6c0-1,0-2,0-3,0-.9-.3-1.8-.8-2.4-4.3,4.7-8.8,9.3-13.2,14-3.3,3.5-6.5,6.9-9.7,10.3l2.1,2.1c6.9,6.9,13.9,13.9,20.8,20.8.5-.7.8-1.6.8-2.6,0-8.6,0-17.1,0-25.7h0Z"/>
  <path class="cls-1" d="M32.1,45.7c-4-4.3-8.1-8.5-12.1-12.8-3.7-3.9-7.3-7.7-10.9-11.6-.2.3-.4.8-.6,1.2-.2.9-.1,1.8-.1,2.7v39.9c0,1.2,0,2.4.7,3.5,1-1,1.9-1.9,2.9-2.9,6.7-6.7,13.4-13.4,20.1-20.1h0Z"/>
  <path class="cls-1" d="M55.8,47.7c-1.6,1.7-3.2,3.4-4.8,5-.4.4-.8.9-1.3,1.4-1.9,1.9-4.6,2.6-7.1,1.7-2.1-.8-3.6-2.8-5.1-4.4-1.2-1.2-2.3-2.5-3.5-3.7l-22.6,22.5c1.4.4,3.1.2,4.6.2h61.4c.4,0,.7,0,1-.2-.8-.8-1.7-1.7-2.5-2.5l-20.1-20h0Z"/>
  <path class="cls-1" d="M23.8,33c5.5,5.8,10.9,11.6,16.4,17.4,1.8,1.9,4,4.4,6.9,2.5,1.4-1,2.6-2.6,3.8-3.9,5.8-6.1,11.6-12.3,17.4-18.4,3.4-3.6,6.8-7.1,10.1-10.7.1-.1.3-.3.4-.4H11c.1.1.3.3.4.4,4.2,4.3,8.2,8.8,12.4,13.2h0Z"/>
</svg>