<?xml version="1.0" encoding="UTF-8"?>
<svg id="Layer_1" data-name="Layer 1" xmlns="http://www.w3.org/2000/svg" version="1.1" viewBox="0 0 90.1 90">
  <defs>
    <style>
      .cls-1 {
        fill: #181818;
        stroke-width: 0px;
      }
    </style>
  </defs>
  <path class="cls-1" d="M80.3,77.6l-7.2-17h0c-.5-1.3-1.8-2.1-3.1-2.1h-3.6c-1,0-2,.5-2.7,1.3-4.3,5.5-8.9,10.7-13.8,15.6-1.3,1.3-3,2-4.8,2s-3.5-.7-4.8-2c-4.9-4.9-9.5-10.1-13.8-15.6-.6-.8-1.6-1.3-2.7-1.3h-3.6c-1.4,0-2.6.8-3.1,2.1l-7.2,17h0c-.4,1-.3,2.2.3,3.2.6,1,1.7,1.5,2.8,1.5h64.3c1.1,0,2.1-.6,2.7-1.6.6-.9.7-2.1.3-3.1Z"/>
  <path class="cls-1" d="M45.1,7.7c-7.2,0-14.1,2.9-19.1,7.9-5.1,5.1-7.9,12-7.9,19.2,0,12.2,18.1,31.6,24.7,38.3,1.3,1.3,3.5,1.3,4.8,0,6.8-6.8,24.7-26.1,24.7-38.3s-2.8-14.1-7.9-19.2c-5.1-5.1-12-8-19.1-8ZM45.1,45c-3.6,0-7-1.4-9.6-4-2.5-2.5-4-6-4-9.6s1.4-7,4-9.6c2.5-2.5,6-4,9.6-4s7,1.4,9.6,4c2.5,2.5,4,6,4,9.6s-1.4,7-4,9.6c-2.5,2.5-6,4-9.6,4Z"/>
</svg>