<?xml version="1.0" encoding="UTF-8"?>
<svg id="Layer_1" data-name="Layer 1" xmlns="http://www.w3.org/2000/svg" xmlns:xlink="http://www.w3.org/1999/xlink" version="1.1" viewBox="0 0 769.7 242">
  <defs>
    <style>
      .cls-1 {
        fill: #738d64;
      }

      .cls-1, .cls-2, .cls-3, .cls-4 {
        stroke-width: 0px;
      }

      .cls-2 {
        fill: url(#linear-gradient);
      }

      .cls-3 {
        fill: #99bc85;
      }

      .cls-4 {
        fill: #d9d9d9;
        fill-rule: evenodd;
      }
    </style>
    <linearGradient id="linear-gradient" x1="228.4" y1="121" x2="785.3" y2="121" gradientUnits="userSpaceOnUse">
      <stop offset="0" stop-color="#99bc85"/>
      <stop offset="1" stop-color="#46563d"/>
    </linearGradient>
  </defs>
  <path class="cls-2" d="M303,137.8h-36.8l-6.1,17.6h-19.4l33.2-92.5h21.6l33.2,92.5h-19.6l-6.1-17.6h0ZM298,123l-13.4-38.6-13.4,38.6h26.7,0ZM432.1,81c9,0,16.2,2.8,21.7,8.3,5.6,5.5,8.3,13.1,8.3,23v43h-18.5v-40.5c0-5.7-1.5-10.1-4.4-13.1-2.9-3.1-6.9-4.6-11.9-4.6s-9,1.5-12,4.6c-2.9,3-4.4,7.4-4.4,13.1v40.5h-18.5v-40.5c0-5.7-1.5-10.1-4.4-13.1-2.9-3.1-6.9-4.6-11.9-4.6s-9.2,1.5-12.2,4.6c-2.9,3-4.4,7.4-4.4,13.1v40.5h-18.5v-73.3h18.5v8.9c2.4-3.1,5.4-5.5,9.1-7.3,3.8-1.8,7.9-2.6,12.4-2.6s10.9,1.2,15.4,3.7c4.5,2.4,8,5.8,10.5,10.3,2.4-4.2,5.8-7.6,10.3-10.2,4.6-2.6,9.5-3.8,14.8-3.8h0ZM475,118.5c0-7.4,1.5-14,4.4-19.7,3-5.7,7-10.1,12-13.2,5.1-3.1,10.8-4.6,17.1-4.6s10.2,1.1,14.3,3.3c4.2,2.2,7.5,5,9.9,8.3v-10.5h18.7v73.3h-18.7v-10.7c-2.4,3.4-5.7,6.3-9.9,8.6-4.2,2.2-9,3.3-14.4,3.3s-11.8-1.6-16.9-4.8c-5-3.2-9-7.6-12-13.4-2.9-5.8-4.4-12.5-4.4-20h0ZM532.7,118.8c0-4.5-.9-8.3-2.7-11.5-1.8-3.3-4.2-5.7-7.2-7.4-3-1.8-6.2-2.6-9.7-2.6s-6.6.8-9.5,2.5-5.3,4.1-7.1,7.4c-1.8,3.2-2.6,7-2.6,11.4s.9,8.3,2.6,11.6c1.9,3.3,4.2,5.8,7.1,7.5,3,1.8,6.2,2.6,9.5,2.6s6.7-.8,9.7-2.5c3-1.8,5.4-4.2,7.2-7.4,1.8-3.3,2.7-7.1,2.7-11.6ZM587.9,92.7c2.4-3.4,5.7-6.1,9.8-8.3,4.2-2.3,9-3.4,14.4-3.4s11.9,1.5,16.9,4.6c5.1,3.1,9.1,7.5,12,13.2,3,5.6,4.5,12.2,4.5,19.7s-1.5,14.2-4.5,20c-2.9,5.7-6.9,10.2-12,13.4-5,3.2-10.7,4.8-16.9,4.8s-10.1-1.1-14.3-3.3c-4.1-2.2-7.4-5-9.9-8.3v45.4h-18.5v-108.2h18.5v10.6h0ZM626.7,118.5c0-4.4-.9-8.2-2.8-11.4-1.8-3.3-4.2-5.7-7.2-7.4-2.9-1.7-6.1-2.5-9.5-2.5s-6.5.9-9.5,2.6c-2.9,1.7-5.3,4.1-7.2,7.4-1.8,3.3-2.7,7.1-2.7,11.5s.9,8.2,2.7,11.5c1.8,3.3,4.2,5.8,7.2,7.5,3,1.7,6.2,2.5,9.5,2.5s6.6-.9,9.5-2.6c3-1.8,5.4-4.3,7.2-7.5,1.8-3.3,2.8-7.1,2.8-11.6ZM668.5,73.4c-3.3,0-6-1-8.2-3-2.1-2.1-3.2-4.7-3.2-7.8s1.1-5.6,3.2-7.7c2.2-2.1,4.9-3.2,8.2-3.2s6,1.1,8.1,3.2c2.2,2,3.3,4.6,3.3,7.7s-1.1,5.7-3.3,7.8c-2.1,2-4.8,3-8.1,3ZM677.6,82.1v73.3h-18.5v-73.3h18.5ZM691.2,118.5c0-7.4,1.5-14,4.4-19.7,3-5.7,7-10.1,12-13.2,5.1-3.1,10.8-4.6,17.1-4.6s10.2,1.1,14.3,3.3c4.2,2.2,7.5,5,9.9,8.3v-10.5h18.7v73.3h-18.7v-10.7c-2.4,3.4-5.7,6.3-9.9,8.6-4.2,2.2-9,3.3-14.4,3.3s-11.8-1.6-16.9-4.8c-5-3.2-9-7.6-12-13.4-2.9-5.8-4.4-12.5-4.4-20h0ZM748.9,118.8c0-4.5-.9-8.3-2.7-11.5-1.8-3.3-4.2-5.7-7.2-7.4-3-1.8-6.2-2.6-9.7-2.6s-6.6.8-9.5,2.5-5.3,4.1-7.2,7.4c-1.8,3.2-2.7,7-2.7,11.4s.9,8.3,2.7,11.6c1.8,3.3,4.2,5.8,7.2,7.5,3,1.8,6.2,2.6,9.5,2.6s6.7-.8,9.7-2.5c3-1.8,5.4-4.2,7.2-7.4,1.8-3.3,2.7-7.1,2.7-11.6Z"/>
  <g>
    <path class="cls-3" d="M2.2,105.7C2.2,47.2,46.4,17.8,71,4.6c0,0,27.8,9.2,26.2,9.8C52,32.2,25.6,67.6,24.2,105.7c-1.4,38.1,5.4,64,47.9,93.9,7.8-6.4,31.5-21.8,42.5-42.2,11.4-21.2,21-54.9,21.9-70.8,4.6,10.9,5.5,40.9-5.5,70.8-11.7,32-45.7,52.6-59,59.9C50.2,207.8,2.2,176.6,2.2,105.7h0Z"/>
    <path class="cls-4" d="M62.6,159.5c0,.3,0,.5,0,.7v-.7Z"/>
    <path class="cls-1" d="M124.2,28.1c-9.1,1.4-34.3,19.1-52.1,49-25.1,42.2-9.7,76-9.5,82.4v-.6c4.1-35.8,5.6-49.4,20.5-72.2,9.1-13.9,27.4-32.7,41.1-39.5,12.3,6.8,33,22.1,43.9,43.6,17.6,34.8,8.1,73.9-11.1,98.4-15.4,19.6-46.7,35.5-58.1,40.9l27.7,7.4c11.4-8.2,38-24,51.1-41.8,21.9-30,26.1-84.4,2.7-118.5-18.6-27.2-45.2-44-56.2-49h0Z"/>
  </g>
</svg>