<?xml version="1.0" encoding="UTF-8"?>
<svg id="Layer_1" data-name="Layer 1" xmlns="http://www.w3.org/2000/svg" version="1.1" viewBox="0 0 792 612">
  <defs>
    <style>
      .cls-1 {
        fill: #fafafa;
        stroke-width: 0px;
      }
    </style>
  </defs>
  <path class="cls-1" d="M461.43,603.95c-13.07-3.68-26.12-7.4-39.21-11.02-10.49-2.9-21.02-5.68-32.83-8.86,10.12-5.21,19.11-9.68,27.95-14.43,35.09-18.84,68.75-39.82,98.73-66.28,37.17-32.82,60.57-74.13,73.51-121.51,15.47-56.62,12.6-112.22-11.35-166.21-14.83-33.42-37.4-61.11-64.39-85.38-16.23-14.6-33.73-27.48-52.46-38.73-3.74-2.25-6.46-1.97-9.96.07-18.81,10.98-35.3,24.91-50.87,39.97-28.75,27.8-53.29,58.8-71.74,94.5-14.12,27.33-22.66,56.36-27.03,86.64-3.47,24.02-6.15,48.15-9.2,72.22-.14,1.07-.46,2.12-.83,3.74-19.44-64.99-17.92-128.33,10.65-189.7,26.89-57.74,65.96-105.93,117.8-143.25,8.94-6.44,19.32-10.89,29.06-16.22,4.9-2.68,9.31-1.48,14.06,1.07,24.86,13.35,47.85,29.4,69.29,47.66,32.62,27.77,61.55,58.88,83.15,96.14,16.73,28.85,25.85,60.37,30.29,93.29,1.2,8.87,2.04,17.8,3.04,26.7v33.95c-.29,1.62-.74,3.23-.84,4.86-1.74,28.68-7.13,56.65-16.37,83.85-11.71,34.49-29.44,65.26-55.74,90.84-23.33,22.68-49.32,41.97-75.99,60.42-12.28,8.49-24.48,17.1-36.72,25.66h-2Z"/>
  <path class="cls-1" d="M396.84,33.18c-14.54,7.12-28.96,13.51-42.74,21.05-51.89,28.39-94.11,66.92-122.69,119.33-20.23,37.09-29.81,76.86-30.01,119.11-.14,30.53.98,60.86,8.68,90.6,10.18,39.35,31.14,72.39,59.26,101.21,18.41,18.86,38.78,35.39,60.75,51,14.82-11.68,29.88-23.1,44.44-35.13,23.54-19.47,45.29-40.72,61.83-66.68,14.28-22.4,24.17-46.93,33.27-71.74,13.7-37.34,24.83-75.41,30.95-114.81.76-4.92,1.28-9.88,2.62-15.16.64,1.83,1.41,3.62,1.9,5.49,5.38,20.47,6.43,41.37,5.78,62.38-1.28,41.53-8.95,81.91-23.07,120.97-13.59,37.56-37.12,68.45-65.71,95.75-26.48,25.29-56.18,46.23-87.92,64.36-2.81,1.6-5.03,2.08-8.18.57-61.17-29.37-108.95-73.14-142.16-132.43-22.67-40.49-34.83-84.23-39.16-130.33-3.66-38.93-2.05-77.43,8.56-115.26,14.3-50.98,42.22-93.59,80.34-129.83,26.93-25.6,57.34-46.35,89.79-64.26,2.72-1.5,4.99-1.73,7.89-.67,19.64,7.21,39.33,14.25,58.99,21.4,2.27.83,4.4,2.03,6.61,3.07h-.02Z"/>
</svg>