<?xml version="1.0" encoding="UTF-8"?>
<svg id="Layer_1" data-name="Layer 1" xmlns="http://www.w3.org/2000/svg" xmlns:xlink="http://www.w3.org/1999/xlink" version="1.1" viewBox="0 0 299 323">
  <defs>
    <style>
      .cls-1 {
        fill: url(#linear-gradient);
      }

      .cls-1, .cls-2, .cls-3, .cls-4 {
        stroke-width: 0px;
      }

      .cls-2 {
        fill: #d9d9d9;
        fill-rule: evenodd;
      }

      .cls-3 {
        fill: url(#linear-gradient-2);
      }

      .cls-4 {
        fill: url(#linear-gradient-3);
      }
    </style>
    <linearGradient id="linear-gradient" x1="53.5" y1="107.6" x2="191.8" y2="107.6" gradientUnits="userSpaceOnUse">
      <stop offset="0" stop-color="#606f57" stop-opacity=".5"/>
      <stop offset="1" stop-color="#252c21" stop-opacity=".9"/>
    </linearGradient>
    <linearGradient id="linear-gradient-2" x1="109.3" y1="129.6" x2="248.4" y2="129.6" xlink:href="#linear-gradient"/>
    <linearGradient id="linear-gradient-3" x1="26.6" y1="37.7" x2="287.3" y2="37.7" gradientTransform="translate(0 324) scale(1 -1)" xlink:href="#linear-gradient"/>
  </defs>
  <path class="cls-1" d="M53.5,102.3C53.5,43,97.9,13.3,122.7,0c0,0,27.9,9.3,26.3,9.9-45.5,17.9-72,53.8-73.4,92.3-1.4,38.6,5.4,64.8,48.1,95.1,7.8-6.4,31.7-22,42.7-42.7,11.4-21.4,21.1-55.6,22.1-71.6,4.6,11,5.5,41.3-5.5,71.6-11.8,32.4-45.9,53.3-59.3,60.6-22.1-9.6-70.3-41.3-70.3-113Z"/>
  <path class="cls-2" d="M114.2,156.7c0,.3,0,.5,0,.7v-.7Z"/>
  <path class="cls-3" d="M176.2,23.8c-9.2,1.4-34.5,19.3-52.4,49.6-25.3,42.7-9.7,76.9-9.6,83.4v-.6c4.1-36.2,5.6-49.9,20.6-73.1,9.1-14.1,27.6-33.1,41.4-40,12.4,6.9,33.2,22.3,44.1,44.1,17.7,35.2,8.2,74.7-11.1,99.5-15.4,19.8-47,35.9-58.4,41.4l27.8,7.4c11.5-8.3,38.2-24.2,51.4-42.3,22.1-30.3,26.2-85.4,2.8-119.9-18.7-27.6-45.5-44.5-56.5-49.6Z"/>
  <path class="cls-4" d="M43,295.2h-19.5l-3.2,9.3h-10.3l17.6-49h11.4l17.6,49h-10.4l-3.2-9.3ZM40.3,287.3l-7.1-20.5-7.1,20.5h14.2ZM111.4,265.1c4.8,0,8.6,1.5,11.5,4.4,2.9,2.9,4.4,7,4.4,12.2v22.8h-9.8v-21.5c0-3-.8-5.4-2.3-6.9-1.5-1.6-3.6-2.5-6.3-2.5s-4.8.8-6.4,2.5c-1.5,1.6-2.3,3.9-2.3,6.9v21.5h-9.8v-21.5c0-3-.8-5.4-2.3-6.9-1.5-1.6-3.6-2.5-6.3-2.5s-4.9.8-6.4,2.5c-1.5,1.6-2.3,3.9-2.3,6.9v21.5h-9.8v-38.8h9.8v4.7c1.3-1.6,2.9-2.9,4.8-3.9,2-.9,4.2-1.4,6.6-1.4s5.7.7,8.1,2c2.4,1.3,4.2,3.1,5.5,5.5,1.3-2.2,3.1-4,5.5-5.4,2.4-1.4,5-2,7.9-2ZM134.1,284.9c0-3.9.8-7.4,2.3-10.4,1.6-3,3.7-5.4,6.4-7,2.7-1.6,5.7-2.5,9-2.5s5.4.6,7.6,1.8c2.2,1.2,3.9,2.6,5.3,4.4v-5.5h9.9v38.8h-9.9v-5.7c-1.3,1.8-3,3.3-5.3,4.6-2.2,1.2-4.7,1.8-7.6,1.8s-6.3-.8-9-2.5c-2.7-1.7-4.8-4-6.4-7.1-1.5-3.1-2.3-6.6-2.3-10.6ZM164.6,285.1c0-2.4-.5-4.4-1.4-6.1-.9-1.7-2.2-3-3.8-3.9-1.6-.9-3.3-1.4-5.1-1.4s-3.5.4-5,1.3c-1.5.9-2.8,2.2-3.8,3.9-.9,1.7-1.4,3.7-1.4,6s.5,4.4,1.4,6.2c1,1.7,2.2,3.1,3.8,4,1.6.9,3.3,1.4,5,1.4s3.5-.4,5.1-1.3c1.6-.9,2.8-2.2,3.8-3.9.9-1.7,1.4-3.8,1.4-6.2ZM193.9,271.3c1.3-1.8,3-3.2,5.2-4.4,2.2-1.2,4.8-1.8,7.6-1.8s6.3.8,9,2.5c2.7,1.6,4.8,4,6.4,7,1.6,3,2.4,6.5,2.4,10.4s-.8,7.5-2.4,10.6c-1.5,3-3.7,5.4-6.4,7.1-2.7,1.7-5.7,2.5-9,2.5s-5.4-.6-7.6-1.8c-2.2-1.2-3.9-2.6-5.3-4.4v24h-9.8v-57.3h9.8v5.6ZM214.5,284.9c0-2.3-.5-4.3-1.5-6-.9-1.7-2.2-3-3.8-3.9-1.5-.9-3.2-1.3-5-1.3s-3.5.5-5,1.4c-1.5.9-2.8,2.2-3.8,3.9-.9,1.7-1.4,3.8-1.4,6.1s.5,4.4,1.4,6.1c1,1.7,2.2,3.1,3.8,4,1.6.9,3.3,1.3,5,1.3s3.5-.5,5-1.4c1.6-.9,2.8-2.3,3.8-4,1-1.7,1.5-3.8,1.5-6.2ZM236.6,261c-1.7,0-3.2-.5-4.3-1.6-1.1-1.1-1.7-2.5-1.7-4.1s.6-3,1.7-4.1c1.2-1.1,2.6-1.7,4.3-1.7s3.2.6,4.3,1.7c1.2,1.1,1.8,2.4,1.8,4.1s-.6,3-1.8,4.1c-1.1,1.1-2.5,1.6-4.3,1.6ZM241.4,265.7v38.8h-9.8v-38.8h9.8ZM248.6,284.9c0-3.9.8-7.4,2.3-10.4,1.6-3,3.7-5.4,6.4-7,2.7-1.6,5.7-2.5,9-2.5s5.4.6,7.6,1.8c2.2,1.2,3.9,2.6,5.3,4.4v-5.5h9.9v38.8h-9.9v-5.7c-1.3,1.8-3,3.3-5.3,4.6-2.2,1.2-4.7,1.8-7.6,1.8s-6.3-.8-9-2.5c-2.7-1.7-4.8-4-6.4-7.1-1.5-3.1-2.3-6.6-2.3-10.6ZM279.2,285.1c0-2.4-.5-4.4-1.4-6.1-.9-1.7-2.2-3-3.8-3.9-1.6-.9-3.3-1.4-5.1-1.4s-3.5.4-5,1.3c-1.5.9-2.8,2.2-3.8,3.9-.9,1.7-1.4,3.7-1.4,6s.5,4.4,1.4,6.2c1,1.7,2.2,3.1,3.8,4,1.6.9,3.3,1.4,5,1.4s3.5-.4,5.1-1.3c1.6-.9,2.9-2.2,3.8-3.9.9-1.7,1.4-3.8,1.4-6.2Z"/>
</svg>