<?xml version="1.0" encoding="UTF-8"?>
<svg id="Layer_1" data-name="Layer 1" xmlns="http://www.w3.org/2000/svg" version="1.1" viewBox="0 0 792 612">
  <defs>
    <style>
      .cls-1, .cls-2 {
        fill: #181818;
        stroke-width: 0px;
      }

      .cls-2 {
        fill-rule: evenodd;
      }
    </style>
  </defs>
  <path class="cls-1" d="M314.17,322.8h-36.79l-6.09,17.6h-19.45l33.21-92.49h21.57l33.21,92.49h-19.58l-6.09-17.6h0ZM309.14,307.98l-13.36-38.64-13.36,38.64h26.73-.01ZM443.29,266.04c9,0,16.23,2.78,21.7,8.34,5.56,5.47,8.34,13.14,8.34,23.02v43h-18.52v-40.49c0-5.73-1.46-10.1-4.37-13.1-2.91-3.09-6.88-4.63-11.91-4.63s-9.04,1.54-12.04,4.63c-2.91,3-4.37,7.37-4.37,13.1v40.49h-18.52v-40.49c0-5.73-1.46-10.1-4.37-13.1-2.91-3.09-6.88-4.63-11.91-4.63s-9.17,1.54-12.17,4.63c-2.91,3-4.37,7.37-4.37,13.1v40.49h-18.52v-73.31h18.52v8.87c2.38-3.09,5.43-5.51,9.13-7.28,3.79-1.76,7.94-2.65,12.44-2.65,5.73,0,10.85,1.23,15.35,3.7,4.5,2.38,7.98,5.82,10.45,10.32,2.38-4.23,5.82-7.63,10.32-10.19,4.59-2.56,9.53-3.84,14.82-3.84v.02ZM486.14,303.49c0-7.41,1.46-13.98,4.37-19.72,3-5.73,7.01-10.14,12.04-13.23,5.12-3.09,10.81-4.63,17.07-4.63,5.47,0,10.23,1.1,14.29,3.31,4.15,2.21,7.45,4.98,9.92,8.34v-10.45h18.66v73.31h-18.66v-10.72c-2.38,3.44-5.69,6.31-9.92,8.6-4.15,2.21-8.95,3.31-14.42,3.31-6.17,0-11.82-1.59-16.94-4.76-5.03-3.18-9.04-7.63-12.04-13.36-2.91-5.82-4.37-12.48-4.37-19.98v-.02ZM543.83,303.75c0-4.5-.88-8.34-2.65-11.51-1.76-3.26-4.15-5.73-7.15-7.41-3-1.76-6.22-2.65-9.66-2.65s-6.62.84-9.53,2.51-5.29,4.15-7.15,7.41c-1.76,3.18-2.65,6.97-2.65,11.38s.88,8.29,2.65,11.64c1.85,3.26,4.23,5.78,7.15,7.54,3,1.76,6.17,2.65,9.53,2.65s6.66-.84,9.66-2.51c3-1.76,5.38-4.23,7.15-7.41,1.76-3.26,2.65-7.15,2.65-11.64ZM599.11,277.68c2.38-3.35,5.65-6.13,9.79-8.34,4.23-2.29,9.04-3.44,14.42-3.44,6.26,0,11.91,1.54,16.94,4.63,5.12,3.09,9.13,7.5,12.04,13.23,3,5.65,4.5,12.22,4.5,19.72s-1.5,14.16-4.5,19.98c-2.91,5.73-6.92,10.19-12.04,13.36-5.03,3.18-10.67,4.76-16.94,4.76-5.38,0-10.14-1.1-14.29-3.31-4.06-2.21-7.37-4.98-9.92-8.34v45.39h-18.52v-108.24h18.52v10.59h0ZM637.88,303.49c0-4.41-.93-8.2-2.78-11.38-1.76-3.26-4.15-5.73-7.15-7.41-2.91-1.68-6.09-2.51-9.53-2.51s-6.53.88-9.53,2.65c-2.91,1.68-5.29,4.15-7.15,7.41-1.76,3.26-2.65,7.1-2.65,11.51s.88,8.25,2.65,11.51c1.85,3.26,4.23,5.78,7.15,7.54,3,1.68,6.17,2.51,9.53,2.51s6.62-.88,9.53-2.65c3-1.76,5.38-4.28,7.15-7.54,1.85-3.26,2.78-7.15,2.78-11.64ZM679.65,258.36c-3.26,0-6-1.01-8.2-3.04-2.12-2.12-3.18-4.72-3.18-7.81s1.06-5.65,3.18-7.67c2.21-2.12,4.94-3.18,8.2-3.18s5.95,1.06,8.07,3.18c2.21,2.03,3.31,4.59,3.31,7.67s-1.1,5.69-3.31,7.81c-2.12,2.03-4.81,3.04-8.07,3.04ZM688.78,267.1v73.31h-18.52v-73.31h18.52ZM702.32,303.49c0-7.41,1.46-13.98,4.37-19.72,3-5.73,7.01-10.14,12.04-13.23,5.12-3.09,10.81-4.63,17.07-4.63,5.47,0,10.23,1.1,14.29,3.31,4.15,2.21,7.45,4.98,9.92,8.34v-10.45h18.66v73.31h-18.66v-10.72c-2.38,3.44-5.69,6.31-9.92,8.6-4.15,2.21-8.95,3.31-14.42,3.31-6.17,0-11.82-1.59-16.94-4.76-5.03-3.18-9.04-7.63-12.04-13.36-2.91-5.82-4.37-12.48-4.37-19.98v-.02ZM760.02,303.75c0-4.5-.88-8.34-2.65-11.51-1.76-3.26-4.15-5.73-7.15-7.41-3-1.76-6.22-2.65-9.66-2.65s-6.62.84-9.53,2.51-5.29,4.15-7.15,7.41c-1.76,3.18-2.65,6.97-2.65,11.38s.88,8.29,2.65,11.64c1.85,3.26,4.23,5.78,7.15,7.54,3,1.76,6.17,2.65,9.53,2.65s6.66-.84,9.66-2.51c3-1.76,5.38-4.23,7.15-7.41,1.76-3.26,2.65-7.15,2.65-11.64Z"/>
  <g>
    <path class="cls-1" d="M13.33,290.71c0-58.55,44.18-87.93,68.87-101.09,0,0,27.79,9.21,26.2,9.83-45.25,17.7-71.66,53.13-73.03,91.26-1.37,38.13,5.38,64,47.89,93.95,7.77-6.35,31.54-21.79,42.51-42.21,11.37-21.17,21.03-54.92,21.94-70.81,4.57,10.89,5.49,40.85-5.49,70.81-11.74,32.05-45.71,52.65-58.96,59.91-21.94-9.53-69.94-40.8-69.94-111.66h.01Z"/>
    <path class="cls-2" d="M73.74,344.51c0,.28-.02.5-.08.67l.08-.67Z"/>
    <path class="cls-1" d="M135.37,213.1c-9.14,1.36-34.28,19.06-52.11,49.02-25.13,42.23-9.65,76.04-9.52,82.39l.07-.64c4-35.78,5.52-49.35,20.42-72.22,9.08-13.93,27.43-32.68,41.14-39.49,12.34,6.81,33.01,22.07,43.88,43.57,17.58,34.77,8.14,73.88-11.06,98.39-15.36,19.61-46.71,35.45-58.14,40.9l27.7,7.35c11.43-8.17,38.03-23.96,51.1-41.79,21.94-29.96,26.05-84.42,2.74-118.46-18.65-27.23-45.25-44.03-56.22-49.02h0Z"/>
  </g>
</svg>