<?xml version="1.0" encoding="UTF-8"?>
<svg version="1.1" xmlns="http://www.w3.org/2000/svg" width="512" height="512">
<path d="M0 0 C1.68996094 0.5259375 1.68996094 0.5259375 3.4140625 1.0625 C29.39745833 10.16617153 50.84558431 29.22100886 62.9765625 53.921875 C69.94520955 68.81860735 73.18422769 83.65970234 73.125 100.125 C73.12886719 101.176875 73.13273438 102.22875 73.13671875 103.3125 C73.13478516 104.89417969 73.13478516 104.89417969 73.1328125 106.5078125 C73.13414688 107.51710312 73.13548126 108.52639374 73.13685608 109.56626892 C73 113 73 113 72.41795349 116.07936096 C71.55212339 120.99649538 71.13098772 124.50332953 73.69677734 128.92230225 C76.29673737 131.9143876 79.06272494 134.64133563 81.96484375 137.33203125 C83.00064354 138.34167397 84.03336261 139.35448595 85.06312561 140.37028503 C87.76398707 143.01803689 90.50416375 145.62103282 93.25518799 148.2164917 C96.06199803 150.87931054 98.82892217 153.58290691 101.59960938 156.28320312 C107.02847099 161.56253435 112.49957508 166.79516146 118 172 C121.44575298 170.50340185 123.79528405 168.52175861 126.5090332 165.94018555 C127.39287186 165.10138351 128.27671051 164.26258148 129.18733215 163.39836121 C133.19213786 159.53594176 137.18299883 155.66001598 141.15551758 151.7644043 C143.25121675 149.71323396 145.36459443 147.68334986 147.49633789 145.66967773 C150.08073108 143.22810765 152.62843382 140.7532341 155.15462303 138.25153542 C156.58278589 136.85405887 158.04487915 135.4915282 159.50740051 134.13005066 C164.47146527 129.19014219 164.47146527 129.19014219 166.35977173 122.65013123 C166.11091722 119.36210496 165.60067875 116.2393741 165 113 C164.89491205 110.94297565 164.82200517 108.88377237 164.796875 106.82421875 C164.78414551 105.8199585 164.77141602 104.81569824 164.75830078 103.78100586 C164.67453636 72.5639754 174.77093025 46.65386511 196.65234375 24.2890625 C219.39564355 2.5810671 247.03174982 -4.5783061 277.7109375 -4.28125 C286.28502705 -4.06134516 293.89302275 -2.7140368 302 0 C303.22074219 0.40863281 304.44148438 0.81726563 305.69921875 1.23828125 C318.85476434 5.99667008 318.85476434 5.99667008 322.875 11.625 C324.36599455 16.09798365 324.90165749 20.34261958 324 25 C320.56463563 31.08888319 315.58083176 35.67268299 310.640625 40.5546875 C309.73624695 41.45623566 308.8318689 42.35778381 307.90008545 43.28665161 C305.51005 45.66742095 303.11578103 48.04376088 300.71929932 50.41802979 C298.26884125 52.84792571 295.82412725 55.28358605 293.37890625 57.71875 C288.59118389 62.48446663 283.79779172 67.2444218 279 72 C283.56150379 77.40306025 283.56150379 77.40306025 288.4296875 82.52734375 C289.28046875 83.37329102 289.28046875 83.37329102 290.1484375 84.23632812 C290.71820313 84.79771484 291.28796875 85.35910156 291.875 85.9375 C292.46796875 86.52595703 293.0609375 87.11441406 293.671875 87.72070312 C295.11226466 89.14947674 296.5557967 90.57508132 298 92 C303.522591 87.40702618 308.59763254 82.50546713 313.63671875 77.390625 C315.28176845 75.73294133 316.92695475 74.0753932 318.57226562 72.41796875 C321.14165915 69.82367275 323.70941849 67.22779814 326.2746582 64.62939453 C328.76598038 62.10793635 331.26342998 59.59267804 333.76171875 57.078125 C334.52844406 56.29794006 335.29516937 55.51775513 336.08512878 54.71392822 C336.80300064 53.99267761 337.5208725 53.271427 338.26049805 52.52832031 C338.88780319 51.89355774 339.51510834 51.25879517 340.16142273 50.60479736 C344.36513994 46.93559379 348.04141903 46.53547903 353.47265625 46.7109375 C357.45295974 47.16618087 360.22269819 48.16113238 363 51 C376.05465418 70.26043807 377.79044149 98.22256723 374.28125 120.453125 C373.44678158 124.72755631 372.30228023 128.84469794 371 133 C370.649375 134.12664062 370.29875 135.25328125 369.9375 136.4140625 C360.83382847 162.39745833 341.77899114 183.84558431 317.078125 195.9765625 C302.18139265 202.94520955 287.34029766 206.18422769 270.875 206.125 C269.823125 206.12886719 268.77125 206.13273438 267.6875 206.13671875 C266.10582031 206.13478516 266.10582031 206.13478516 264.4921875 206.1328125 C263.48289688 206.13414688 262.47360626 206.13548126 261.43373108 206.13685608 C258 206 258 206 254.92063904 205.41795349 C250.00350462 204.55212339 246.49667047 204.13098772 242.07769775 206.69677734 C239.0856124 209.29673737 236.35866437 212.06272494 233.66796875 214.96484375 C232.65832603 216.00064354 231.64551405 217.03336261 230.62971497 218.06312561 C227.98196311 220.76398707 225.37896718 223.50416375 222.7835083 226.25518799 C220.12068946 229.06199803 217.41709309 231.82892217 214.71679688 234.59960938 C209.43746565 240.02847099 204.20483854 245.49957508 199 251 C200.49841539 254.45913172 202.490358 256.79682721 205.09155273 259.5090332 C206.35943886 260.83479118 206.35943886 260.83479118 207.65293884 262.18733215 C211.53850815 266.18859455 215.43228191 270.18124802 219.34545898 274.15551758 C221.40769994 276.25338593 223.45157864 278.36690455 225.48120117 280.49633789 C227.94023327 283.07611822 230.42780146 285.6248506 232.93821907 288.15462303 C234.34439805 289.58610518 235.72086264 291.04658369 237.09654236 292.50740051 C241.74415122 297.30437821 241.74415122 297.30437821 247.86865234 299.36100769 C250.6589912 299.1087097 253.27059558 298.62034872 256 298 C271.68584852 297.23747887 286.99573056 297.00405486 302 302 C303.10472656 302.350625 304.20945312 302.70125 305.34765625 303.0625 C332.54397265 312.57955847 353.67618932 332.58603313 366.25 358.3125 C376.61412561 381.81221656 379.25395683 410.45533889 371 435 C370.649375 436.1034375 370.29875 437.206875 369.9375 438.34375 C360.43126063 465.5421571 340.40989716 486.67817839 314.6875 499.25 C288.45311134 510.80600678 257.84899538 511.91150928 231.05224609 501.6015625 C204.47847162 490.75248811 183.946221 470.80650806 172.34765625 444.5078125 C168.26908592 433.89170771 164.87877763 422.89897209 164.8671875 411.45703125 C164.86589844 410.21759766 164.86460937 408.97816406 164.86328125 407.70117188 C164.86714844 406.41791016 164.87101562 405.13464844 164.875 403.8125 C164.87113281 402.54857422 164.86726563 401.28464844 164.86328125 399.98242188 C164.86521484 398.11360352 164.86521484 398.11360352 164.8671875 396.20703125 C164.86831543 395.0878833 164.86944336 393.96873535 164.87060547 392.81567383 C165 389 165 389 165.58183289 386.49342346 C166.47640346 382.01818489 166.76387701 379.23386059 164.30322266 375.25926208 C161.68631177 372.29701284 158.91512852 369.56341656 156.03515625 366.86328125 C154.999791 365.85032694 153.967065 364.83466859 152.93687439 363.81645203 C150.23187875 361.15704858 147.49283182 358.5356611 144.74481201 355.9208374 C141.94165363 353.24093947 139.1725975 350.52629177 136.40039062 347.81445312 C130.96620361 342.50856074 125.49553722 337.2424026 120 332 C116.55424702 333.49659815 114.20471595 335.47824139 111.4909668 338.05981445 C110.60712814 338.89861649 109.72328949 339.73741852 108.81266785 340.60163879 C104.80786214 344.46405824 100.81700117 348.33998402 96.84448242 352.2355957 C94.74878325 354.28676604 92.63540557 356.31665014 90.50366211 358.33032227 C87.91926892 360.77189235 85.37156618 363.2467659 82.84537697 365.74846458 C81.41721411 367.14594113 79.95512085 368.5084718 78.49259949 369.86994934 C73.52853473 374.80985781 73.52853473 374.80985781 71.64022827 381.34986877 C71.88908278 384.63789504 72.39932125 387.7606259 73 391 C73.10508795 393.05702435 73.17799483 395.11622763 73.203125 397.17578125 C73.21585449 398.1800415 73.22858398 399.18430176 73.24169922 400.21899414 C73.32546364 431.4360246 63.22906975 457.34613489 41.34765625 479.7109375 C17.65909931 502.32116072 -10.89340928 508.82233599 -42.72460938 508.13183594 C-56.33931465 507.58383796 -71.95243731 503.21652306 -83 495 C-86.10087173 490.65877958 -86.37191021 486.72853531 -86.49609375 481.5625 C-85.04076237 474.04519777 -77.82782844 468.57140374 -72.640625 463.4453125 C-71.73624695 462.54376434 -70.8318689 461.64221619 -69.90008545 460.71334839 C-67.51005 458.33257905 -65.11578103 455.95623912 -62.71929932 453.58197021 C-60.26884125 451.15207429 -57.82412725 448.71641395 -55.37890625 446.28125 C-50.59118389 441.51553337 -45.79779172 436.7555782 -41 432 C-45.56150379 426.59693975 -45.56150379 426.59693975 -50.4296875 421.47265625 C-50.996875 420.90869141 -51.5640625 420.34472656 -52.1484375 419.76367188 C-52.71820313 419.20228516 -53.28796875 418.64089844 -53.875 418.0625 C-54.46796875 417.47404297 -55.0609375 416.88558594 -55.671875 416.27929688 C-57.11226466 414.85052326 -58.5557967 413.42491868 -60 412 C-65.522591 416.59297382 -70.59763254 421.49453287 -75.63671875 426.609375 C-77.28176845 428.26705867 -78.92695475 429.9246068 -80.57226562 431.58203125 C-83.14165915 434.17632725 -85.70941849 436.77220186 -88.2746582 439.37060547 C-90.76598038 441.89206365 -93.26342998 444.40732196 -95.76171875 446.921875 C-96.91180672 448.0921524 -96.91180672 448.0921524 -98.08512878 449.28607178 C-98.80300064 450.00732239 -99.5208725 450.728573 -100.26049805 451.47167969 C-100.88780319 452.10644226 -101.51510834 452.74120483 -102.16142273 453.39520264 C-106.36513994 457.06440621 -110.04141903 457.46452097 -115.47265625 457.2890625 C-119.45295974 456.83381913 -122.22269819 455.83886762 -125 453 C-138.51792422 433.05606747 -140.06242138 403.59515813 -135.875 380.6875 C-128.84754204 352.47915237 -112.77404275 328.46894477 -88 313 C-70.66865691 302.87455099 -52.70435696 297.57376308 -32.5625 297.8125 C-31.53318359 297.81314453 -30.50386719 297.81378906 -29.44335938 297.81445312 C-28.41146484 297.82025391 -27.37957031 297.82605469 -26.31640625 297.83203125 C-25.33730286 297.83673431 -24.35819946 297.84143738 -23.34942627 297.84628296 C-20 298 -20 298 -16.93780518 298.58547974 C-12.01560465 299.44854037 -8.50035131 299.87101534 -4.07701111 297.30308533 C-1.08536706 294.70301367 1.64150318 291.93709434 4.33203125 289.03515625 C5.34167397 287.99935646 6.35448595 286.96663739 7.37028503 285.93687439 C10.01803689 283.23601293 12.62103282 280.49583625 15.2164917 277.74481201 C17.87931054 274.93800197 20.58290691 272.17107783 23.28320312 269.40039062 C28.56253435 263.97152901 33.79516146 258.50042492 39 253 C37.50340185 249.55424702 35.52175861 247.20471595 32.94018555 244.4909668 C32.10138351 243.60712814 31.26258148 242.72328949 30.39836121 241.81266785 C26.53594176 237.80786214 22.66001598 233.81700117 18.7644043 229.84448242 C16.71323396 227.74878325 14.68334986 225.63540557 12.66967773 223.50366211 C10.22810765 220.91926892 7.7532341 218.37156618 5.25153542 215.84537697 C3.85405887 214.41721411 2.4915282 212.95512085 1.13005066 211.49259949 C-3.80985781 206.52853473 -3.80985781 206.52853473 -10.34986877 204.64022827 C-13.63789504 204.88908278 -16.7606259 205.39932125 -20 206 C-22.05702435 206.10508795 -24.11622763 206.17799483 -26.17578125 206.203125 C-27.1800415 206.21585449 -28.18430176 206.22858398 -29.21899414 206.24169922 C-60.4360246 206.32546364 -86.34613489 196.22906975 -108.7109375 174.34765625 C-130.4189329 151.60435645 -137.5783061 123.96825018 -137.28125 93.2890625 C-137.06134516 84.71497295 -135.7140368 77.10697725 -133 69 C-132.59136719 67.77925781 -132.18273437 66.55851562 -131.76171875 65.30078125 C-127.00332992 52.14523566 -127.00332992 52.14523566 -121.375 48.125 C-116.90201635 46.63400545 -112.65738042 46.09834251 -108 47 C-101.91111681 50.43536437 -97.32731701 55.41916824 -92.4453125 60.359375 C-91.54376434 61.26375305 -90.64221619 62.1681311 -89.71334839 63.09991455 C-87.33257905 65.48995 -84.95623912 67.88421897 -82.58197021 70.28070068 C-80.15207429 72.73115875 -77.71641395 75.17587275 -75.28125 77.62109375 C-70.51553337 82.40881611 -65.7555782 87.20220828 -61 92 C-55.59693975 87.43849621 -55.59693975 87.43849621 -50.47265625 82.5703125 C-49.90869141 82.003125 -49.34472656 81.4359375 -48.76367188 80.8515625 C-48.20228516 80.28179687 -47.64089844 79.71203125 -47.0625 79.125 C-46.17981445 78.23554688 -46.17981445 78.23554688 -45.27929688 77.328125 C-43.85052326 75.88773534 -42.42491868 74.4442033 -41 73 C-45.59297382 67.477409 -50.49453287 62.40236746 -55.609375 57.36328125 C-57.26705867 55.71823155 -58.9246068 54.07304525 -60.58203125 52.42773438 C-63.17632725 49.85834085 -65.77220186 47.29058151 -68.37060547 44.7253418 C-70.89206365 42.23401962 -73.40732196 39.73657002 -75.921875 37.23828125 C-76.70205994 36.47155594 -77.48224487 35.70483063 -78.28607178 34.91487122 C-79.00732239 34.19699936 -79.728573 33.4791275 -80.47167969 32.73950195 C-81.10644226 32.11219681 -81.74120483 31.48489166 -82.39520264 30.83857727 C-86.06440621 26.63486006 -86.46452097 22.95858097 -86.2890625 17.52734375 C-85.83381913 13.54704026 -84.83886762 10.77730181 -82 8 C-59.36771234 -7.34008145 -25.18028891 -7.89155446 0 0 Z M-41 27 C-36.97482789 31.86103681 -32.72724419 36.34325863 -28.17578125 40.7109375 C-26.88662263 41.9679842 -25.59823391 43.22582088 -24.31054688 44.484375 C-22.30979033 46.43575745 -20.30508517 48.38210294 -18.28686523 50.31542969 C-16.31899018 52.20409196 -14.37126471 54.11175161 -12.42578125 56.0234375 C-11.82574783 56.58936615 -11.22571442 57.1552948 -10.60749817 57.7383728 C-5.81469273 62.49973181 -3.18364671 67.33522366 -2.91400146 74.18443298 C-3.85381885 81.97776578 -9.83505607 86.85017831 -15.16015625 92.08984375 C-16.19051185 93.12492352 -17.21982716 94.16103976 -18.24815369 95.19813538 C-20.39994226 97.36020295 -22.56377267 99.50920916 -24.73706055 101.6496582 C-27.50933749 104.38205212 -30.2489852 107.14468581 -32.98032475 109.91792965 C-35.09793101 112.06094056 -37.23206551 114.1868651 -39.37142754 116.30813789 C-40.38794959 117.32002048 -41.39938119 118.33704569 -42.40535164 119.35941887 C-52.22587194 129.30473776 -52.22587194 129.30473776 -58.82151794 130.08004761 C-67.62993409 129.75638525 -72.64521739 125.18444342 -78.5 119.05078125 C-79.26175537 118.27816452 -80.02351074 117.50554779 -80.80834961 116.70951843 C-83.22020981 114.25769917 -85.61047574 111.78607425 -88 109.3125 C-90.42239499 106.83277164 -92.84898813 104.35723698 -95.27734375 101.88334656 C-96.78309222 100.34635903 -98.28451296 98.80511796 -99.78125 97.25935364 C-100.45285156 96.56831039 -101.12445313 95.87726715 -101.81640625 95.1652832 C-102.40881104 94.55256058 -103.00121582 93.93983795 -103.61157227 93.30854797 C-104.80330747 91.88568954 -104.80330747 91.88568954 -106 92 C-106.85787572 115.0504606 -102.19189243 134.84924182 -86.546875 152.390625 C-72.9893303 166.28087018 -54.60333054 174.87069088 -35.12719727 175.41601562 C-27.03255328 175.47920454 -19.70980372 174.81060179 -11.86328125 172.68359375 C-6.20686259 171.33315273 -0.48774272 170.54960202 4.66574478 173.55417633 C8.8475888 176.43734003 12.3138269 180.03763538 15.88323975 183.62927246 C16.65874656 184.40165929 17.43425337 185.17404613 18.23326039 185.96983862 C20.82662343 188.55523409 23.41279064 191.14770782 25.99902344 193.74023438 C27.85829421 195.59679479 29.71799012 197.45292952 31.57807922 199.30867004 C36.1021005 203.82380808 40.62071041 208.34432423 45.13738957 212.86680567 C48.80775528 216.54169095 52.48007184 220.21461606 56.15378571 223.88615417 C56.67693859 224.4090006 57.20009148 224.93184702 57.73909749 225.47053728 C58.80190536 226.53270568 59.86471771 227.59486961 60.92753449 228.65702909 C70.88755002 238.61134476 80.84143157 248.57177598 90.79322019 258.53431553 C99.33377467 267.08381044 107.87956663 275.62804071 116.42919922 284.16845703 C126.35956116 294.08811933 136.28667505 304.01101355 146.2086165 313.93909883 C147.26623259 314.99735202 148.32385286 316.05560104 149.38147736 317.11384583 C149.90184285 317.63451987 150.42220834 318.15519391 150.95834248 318.69164595 C154.62701822 322.36204915 158.29801089 326.0301252 161.96990204 329.6973114 C166.90922806 334.63044738 171.84323399 339.56885118 176.7736721 344.51086998 C178.58682988 346.32667862 180.40170354 348.14077569 182.2183857 349.95305824 C184.69179816 352.42103096 187.15900773 354.89504014 189.62469482 357.37072754 C190.35016565 358.09173692 191.07563648 358.81274631 191.82309127 359.55560446 C192.48173494 360.21946362 193.1403786 360.88332278 193.81898117 361.56729889 C194.38910643 362.13774886 194.9592317 362.70819882 195.54663348 363.29593515 C198.47278129 366.72682857 199.29276847 369.5965975 199.3125 374.0625 C199.32925781 374.91972656 199.34601563 375.77695312 199.36328125 376.66015625 C199.03165657 379.70896382 198.38393539 382.20249559 197.50390625 385.125 C195.79922072 391.12664946 195.53739814 396.72573166 195.625 402.9375 C195.63660156 403.99582031 195.64820313 405.05414063 195.66015625 406.14453125 C196.01194693 422.90632234 202.09559276 438.16756713 213 451 C213.7425 451.99 214.485 452.98 215.25 454 C223.05861659 463.0570161 233.29355379 468.18701042 244 473 C244.79019531 473.36222656 245.58039063 473.72445313 246.39453125 474.09765625 C263.8865857 480.96337388 284.25059152 478.25336266 301 471 C320.60516782 462.13666502 333.29995222 446.63512183 341 427 C341.3609375 426.08476562 341.721875 425.16953125 342.09375 424.2265625 C347.88235633 405.94957399 344.6239913 385.32995246 336.12182617 368.66064453 C333.50614032 363.72848192 330.62084469 359.26105201 327 355 C326.2575 354.01 325.515 353.02 324.75 352 C312.59376076 337.85594806 294.19951194 330.30634333 276.0625 328.125 C267.53183832 327.62795603 258.55569514 328.68227743 250.3671875 331.05078125 C247.24558087 331.93077013 244.66525652 332.32801664 241.4375 332.375 C240.54933594 332.40335937 239.66117187 332.43171875 238.74609375 332.4609375 C231.82371933 331.29900268 226.85084444 325.13428756 222.11676025 320.37072754 C221.34125344 319.59834071 220.56574663 318.82595387 219.76673961 318.03016138 C217.17337657 315.44476591 214.58720936 312.85229218 212.00097656 310.25976562 C210.14170579 308.40320521 208.28200988 306.54707048 206.42192078 304.69132996 C201.8978995 300.17619192 197.37928959 295.65567577 192.86261043 291.13319433 C189.19224472 287.45830905 185.51992816 283.78538394 181.84621429 280.11384583 C181.32306141 279.5909994 180.79990852 279.06815298 180.26090251 278.52946272 C179.19809464 277.46729432 178.13528229 276.40513039 177.07246551 275.34297091 C167.11244998 265.38865524 157.15856843 255.42822402 147.20677981 245.46568447 C138.66622533 236.91618956 130.12043337 228.37195929 121.57080078 219.83154297 C111.64043884 209.91188067 101.71332495 199.98898645 91.7913835 190.06090117 C90.73376741 189.00264798 89.67614714 187.94439896 88.61852264 186.88615417 C87.83797441 186.10514311 87.83797441 186.10514311 87.04165752 185.30835405 C83.37298178 181.63795085 79.70198911 177.9698748 76.03009796 174.3026886 C71.09077194 169.36955262 66.15676601 164.43114882 61.2263279 159.48913002 C59.41317012 157.67332138 57.59829646 155.85922431 55.7816143 154.04694176 C53.30820184 151.57896904 50.84099227 149.10495986 48.37530518 146.62927246 C47.64983435 145.90826308 46.92436352 145.18725369 46.17690873 144.44439554 C45.18894323 143.4486068 45.18894323 143.4486068 44.18101883 142.43270111 C43.61089357 141.86225114 43.0407683 141.29180118 42.45336652 140.70406485 C38.76091767 136.37468737 38.65091276 132.59367146 38.73046875 127.08984375 C39.00535363 123.93862728 39.66395711 121.17199993 40.5 118.125 C45.44426518 98.25331219 41.32721058 78.39489425 31.18896484 60.90478516 C20.89265264 44.4095433 4.78951606 33.70227344 -13.625 28.0625 C-22.51941412 26.0532935 -31.93972767 26.7652514 -41 27 Z M218.71484375 46.41796875 C204.67107878 59.77470062 196.12686603 78.4839235 195.58398438 97.87280273 C195.52079546 105.96744672 196.18939821 113.29019628 198.31640625 121.13671875 C199.69498326 126.91098703 200.44966343 132.59698751 197.30718994 137.80606079 C194.96937409 141.04239672 192.42201185 143.84656682 189.58886719 146.63818359 C188.79795181 147.42953705 188.79795181 147.42953705 187.99105835 148.23687744 C186.26436669 149.96218687 184.53072258 151.68032217 182.796875 153.3984375 C181.59146141 154.60011703 180.38649153 155.8022418 179.1819458 157.00479126 C176.02337187 160.15575975 172.85883639 163.30067339 169.69299316 166.44433594 C166.45835143 169.65845252 163.22942325 172.87829787 160 176.09765625 C153.67222462 182.40403625 147.3381322 188.70403023 141 195 C145.02748053 199.83298806 149.24379413 204.38110004 153.7109375 208.80859375 C154.32393707 209.42017838 154.93693665 210.031763 155.56851196 210.66188049 C157.50164564 212.58947559 159.43824987 214.51353928 161.375 216.4375 C162.69684699 217.75432404 164.01846372 219.07137926 165.33984375 220.38867188 C168.55724299 223.59512373 171.77775681 226.79841629 175 230 C180.99131542 225.08162262 186.43216088 219.6730154 191.87764549 214.16695404 C193.51054379 212.51647617 195.14712314 210.8697292 196.78474426 209.22393799 C201.43529418 204.54908719 206.08001871 199.8684793 210.72045898 195.18359375 C213.5707093 192.30655803 216.4258153 189.4344156 219.28396034 186.56522369 C220.36830817 185.47467754 221.45075604 184.38223873 222.53124046 183.28786469 C224.03866549 181.76121302 225.55216093 180.24083137 227.06713867 178.72167969 C227.92538742 177.85597351 228.78363617 176.99026733 229.66789246 176.09832764 C234.31103497 171.92063254 237.83593617 171.64266793 243.91015625 171.73046875 C247.06137272 172.00535363 249.82800007 172.66395711 252.875 173.5 C272.74668781 178.44426518 292.60510575 174.32721058 310.09521484 164.18896484 C326.5904567 153.89265264 337.29772656 137.78951606 342.9375 119.375 C344.9467065 110.48058588 344.2347486 101.06027233 344 92 C339.13896319 96.02517211 334.65674137 100.27275581 330.2890625 104.82421875 C329.0320158 106.11337737 327.77417912 107.40176609 326.515625 108.68945312 C324.56424255 110.69020967 322.61789706 112.69491483 320.68457031 114.71313477 C318.79590804 116.68100982 316.88824839 118.62873529 314.9765625 120.57421875 C314.41063385 121.17425217 313.8447052 121.77428558 313.2616272 122.39250183 C309.0749968 126.60678286 304.88258094 128.90760535 299 130 C286.05543447 129.88187476 273.81074769 112.17861111 265.41650391 103.87646484 C263.55182895 102.03853526 261.68002862 100.20780748 259.80126953 98.38427734 C257.07179639 95.73389175 254.36599068 93.06123882 251.6640625 90.3828125 C250.82453033 89.57627228 249.98499817 88.76973206 249.12002563 87.93875122 C244.94203081 83.74620365 241.77416606 80.24854979 240.97254944 74.23849487 C241.06555539 66.65419328 244.44147817 61.87688623 249.67619324 56.66967773 C250.80134087 55.59568726 250.80134087 55.59568726 251.94921875 54.5 C252.72183548 53.73824463 253.49445221 52.97648926 254.29048157 52.19165039 C256.74230083 49.77979019 259.21392575 47.38952426 261.6875 45 C264.16722836 42.57760501 266.64276302 40.15101187 269.11665344 37.72265625 C270.65364097 36.21690778 272.19488204 34.71548704 273.74064636 33.21875 C274.43168961 32.54714844 275.12273285 31.87554687 275.8347168 31.18359375 C276.44743942 30.59118896 277.06016205 29.99878418 277.69145203 29.38842773 C279.11431046 28.19669253 279.11431046 28.19669253 279 27 C256.67726148 23.56573253 235.4188802 31.77724298 218.71484375 46.41796875 Z M59.78068542 276.11251831 C58.78766888 277.10875918 57.79745602 278.10779875 56.80932617 279.10888672 C55.99944496 279.92336777 55.99944496 279.92336777 55.17320251 280.75430298 C53.9962562 281.93842453 52.8204254 283.12365561 51.64555931 284.30984116 C49.78617833 286.18654117 47.92333314 288.05973461 46.05940247 289.93191528 C40.75860213 295.25722903 35.46330552 300.58798974 30.17260742 305.92333984 C26.9402434 309.18249126 23.70302328 312.4367532 20.46276283 315.68805313 C19.22770358 316.92932347 17.99454549 318.17248846 16.76332664 319.41756821 C15.03971193 321.16040481 13.31001952 322.89698887 11.57885742 324.63232422 C11.07116821 325.14877502 10.563479 325.66522583 10.04040527 326.19732666 C5.8723047 330.35398914 2.96601267 332.28586761 -2.9375 332.3125 C-7.16800815 332.25134942 -10.80307854 331.61726323 -14.875 330.5 C-34.74668781 325.55573482 -54.60510575 329.67278942 -72.09521484 339.81103516 C-88.5904567 350.10734736 -99.29772656 366.21048394 -104.9375 384.625 C-106.9467065 393.51941412 -106.2347486 402.93972767 -106 412 C-101.13896319 407.97482789 -96.65674137 403.72724419 -92.2890625 399.17578125 C-91.0320158 397.88662263 -89.77417912 396.59823391 -88.515625 395.31054688 C-86.56424255 393.30979033 -84.61789706 391.30508517 -82.68457031 389.28686523 C-80.79590804 387.31899018 -78.88824839 385.37126471 -76.9765625 383.42578125 C-76.41063385 382.82574783 -75.8447052 382.22571442 -75.2616272 381.60749817 C-71.0749968 377.39321714 -66.88258094 375.09239465 -61 374 C-48.18360762 374.1169556 -36.21096767 391.4589294 -27.89868164 399.69628906 C-26.08847669 401.48481394 -24.27202974 403.26704272 -22.44946289 405.04296875 C-19.79926196 407.62615749 -17.1693848 410.22859543 -14.54296875 412.8359375 C-13.73047165 413.62060394 -12.91797455 414.40527039 -12.08085632 415.2137146 C-7.34401626 419.96796731 -4.05695397 424.23599969 -3 431 C-3.50218574 443.54051236 -18.65412256 453.73824826 -26.9375 461.9375 C-29.59527954 464.56878061 -32.24978455 467.20330193 -34.90234375 469.83984375 C-35.51472397 470.44392563 -36.12710419 471.04800751 -36.75804138 471.6703949 C-38.19094488 473.09481608 -39.59841051 474.54475602 -41 476 C-41 476.33 -41 476.66 -41 477 C-23.0583152 480.1915497 -5.11953053 474.53861817 10 465 C26.76088905 452.85294886 38.2798234 435.71800696 41.72314453 415.15087891 C43.13051552 404.2170708 42.29176523 393.83852172 39.68359375 383.15625 C38.40520523 377.25374758 37.4814968 371.51515267 40.69281006 366.19613647 C43.03012434 362.95826894 45.57737054 360.15404173 48.41113281 357.36181641 C48.93840973 356.83424744 49.46568665 356.30667847 50.00894165 355.76312256 C51.73563331 354.03781313 53.46927742 352.31967783 55.203125 350.6015625 C56.40853859 349.39988297 57.61350847 348.1977582 58.8180542 346.99520874 C61.97662813 343.84424025 65.14116361 340.69932661 68.30700684 337.55566406 C71.54164857 334.34154748 74.77057675 331.12170213 78 327.90234375 C84.32777538 321.59596375 90.6618678 315.29596977 97 309 C92.9766261 304.17747645 88.77196762 299.62358826 84.32421875 295.19140625 C83.71359085 294.57982162 83.10296295 293.968237 82.47383118 293.33811951 C81.19691615 292.06052961 79.91876007 290.78417897 78.6394043 289.5090332 C76.67183434 287.54687744 74.70973268 285.5793648 72.74804688 283.61132812 C71.50292517 282.36686624 70.25749384 281.12271406 69.01171875 279.87890625 C68.12899544 278.99314659 68.12899544 278.99314659 67.22843933 278.0894928 C63.72108439 273.67444607 63.72108439 273.67444607 59.78068542 276.11251831 Z " fill="#000000" transform="translate(137,4)"/>
<path d="M0 0 C0.77916779 -0.0066568 1.55833557 -0.0133136 2.3611145 -0.02017212 C4.00683234 -0.03027991 5.652591 -0.03498972 7.29833984 -0.03466797 C9.80505573 -0.03903592 12.31000228 -0.07535767 14.81640625 -0.11328125 C16.41926485 -0.11915106 18.02213176 -0.12311935 19.625 -0.125 C20.74091019 -0.14655655 20.74091019 -0.14655655 21.87936401 -0.16854858 C29.43295255 -0.10284276 33.49150978 3.63188901 38.6171875 8.7421875 C39.44605469 9.56847656 40.27492188 10.39476562 41.12890625 11.24609375 C41.97582031 12.10074219 42.82273437 12.95539063 43.6953125 13.8359375 C44.55769531 14.69058594 45.42007813 15.54523438 46.30859375 16.42578125 C47.13230469 17.25207031 47.95601563 18.07835937 48.8046875 18.9296875 C49.55202148 19.67927734 50.29935547 20.42886719 51.06933594 21.20117188 C55.03879369 25.7182123 55.26372599 29.50121075 55.28125 35.390625 C55.2912352 36.55937668 55.2912352 36.55937668 55.30142212 37.7517395 C55.31152991 39.39745734 55.31623972 41.043216 55.31591797 42.68896484 C55.32028592 45.19568073 55.35660767 47.70062728 55.39453125 50.20703125 C55.40040106 51.80988985 55.40436935 53.41275676 55.40625 55.015625 C55.42062103 55.75956512 55.43499207 56.50350525 55.44979858 57.26998901 C55.38409276 64.82357755 51.64936099 68.88213478 46.5390625 74.0078125 C45.71277344 74.83667969 44.88648438 75.66554688 44.03515625 76.51953125 C43.18050781 77.36644531 42.32585937 78.21335937 41.4453125 79.0859375 C40.16333984 80.37951172 40.16333984 80.37951172 38.85546875 81.69921875 C38.02917969 82.52292969 37.20289063 83.34664063 36.3515625 84.1953125 C35.60197266 84.94264648 34.85238281 85.68998047 34.08007812 86.45996094 C29.5630377 90.42941869 25.78003925 90.65435099 19.890625 90.671875 C19.11145721 90.6785318 18.33228943 90.6851886 17.5295105 90.69204712 C15.88379266 90.70215491 14.238034 90.70686472 12.59228516 90.70654297 C10.08556927 90.71091092 7.58062272 90.74723267 5.07421875 90.78515625 C3.47136015 90.79102606 1.86849324 90.79499435 0.265625 90.796875 C-0.47831512 90.81124603 -1.22225525 90.82561707 -1.98873901 90.84042358 C-9.54232755 90.77471776 -13.60088478 87.03998599 -18.7265625 81.9296875 C-19.55542969 81.10339844 -20.38429688 80.27710938 -21.23828125 79.42578125 C-22.50865234 78.14380859 -22.50865234 78.14380859 -23.8046875 76.8359375 C-25.09826172 75.55396484 -25.09826172 75.55396484 -26.41796875 74.24609375 C-27.24167969 73.41980469 -28.06539063 72.59351563 -28.9140625 71.7421875 C-30.03506348 70.61780273 -30.03506348 70.61780273 -31.17871094 69.47070312 C-35.14816869 64.9536627 -35.37310099 61.17066425 -35.390625 55.28125 C-35.3972818 54.50208221 -35.4039386 53.72291443 -35.41079712 52.9201355 C-35.42090491 51.27441766 -35.42561472 49.628659 -35.42529297 47.98291016 C-35.42966092 45.47619427 -35.46598267 42.97124772 -35.50390625 40.46484375 C-35.50977606 38.86198515 -35.51374435 37.25911824 -35.515625 35.65625 C-35.52999603 34.91230988 -35.54436707 34.16836975 -35.55917358 33.40188599 C-35.49346776 25.84829745 -31.75873599 21.78974022 -26.6484375 16.6640625 C-25.82214844 15.83519531 -24.99585938 15.00632812 -24.14453125 14.15234375 C-23.28988281 13.30542969 -22.43523437 12.45851563 -21.5546875 11.5859375 C-20.70003906 10.72355469 -19.84539062 9.86117188 -18.96484375 8.97265625 C-18.13855469 8.14894531 -17.31226563 7.32523437 -16.4609375 6.4765625 C-15.71134766 5.72922852 -14.96175781 4.98189453 -14.18945312 4.21191406 C-9.6724127 0.24245631 -5.88941425 0.01752401 0 0 Z M-5.0546875 39.3359375 C-6.33024153 43.67971609 -6.33024153 46.99215891 -5.0546875 51.3359375 C-2.12531993 56.34558059 1.27515803 59.55184452 6.8984375 61.203125 C11.53045039 61.59506455 14.67860616 61.07663867 18.7109375 58.71875 C23.23503189 54.83485764 25.56240172 51.33851946 26.0703125 45.3359375 C25.56240172 39.33335554 23.23503189 35.83701736 18.7109375 31.953125 C14.67860616 29.59523633 11.53045039 29.07681045 6.8984375 29.46875 C1.27515803 31.12003048 -2.12531993 34.32629441 -5.0546875 39.3359375 Z " fill="#000000" transform="translate(397.0546875,361.6640625)"/>
</svg>
