<?xml version="1.0" encoding="UTF-8"?>
<svg id="Layer_1" data-name="Layer 1" xmlns="http://www.w3.org/2000/svg" version="1.1" viewBox="0 0 89.8 89.7">
  <defs>
    <style>
      .cls-1 {
        fill: #181818;
        stroke-width: 0px;
      }
    </style>
  </defs>
  <path class="cls-1" d="M36.7,36.2c1.7-1.7,1.9-4.4.4-6.3l-7.3-9.2c-1.7-2.2-4.9-2.4-6.9-.4l-5.6,5.6c-4.6,4.6-4.5,11.2-2.4,17.3,6.3,18,25.8,34.1,36.9,37,6.3,1.6,12.7,2.2,17.3-2.4l5.6-5.6c2-2,1.8-5.2-.4-6.9l-9.2-7.3c-1.9-1.5-4.6-1.3-6.2.4l-4.2,4.4c-1.3,1.4-3.3,1.4-5.2,1.1-6.3-1.1-16.5-10.5-18.4-18.5-.5-1.9-.3-3.9,1.1-5.2l4.4-4.2h0Z"/>
  <path class="cls-1" d="M46.6,23.2c-1-.8-2.5-.5-3.2.5-.8,1-.5,2.5.5,3.2,3,2.3,3.7,6.6,1.5,9.6-.8,1-.5,2.5.5,3.2.4.3.9.5,1.4.5.7,0,1.4-.3,1.9-.9,3.7-5.1,2.6-12.3-2.4-16.1h0Z"/>
  <path class="cls-1" d="M48.6,16.6c-.8,1-.5,2.5.5,3.2,3.4,2.5,5.6,6.1,6.2,10.3.6,4.2-.4,8.3-2.9,11.7-.8,1-.5,2.5.5,3.2.4.3.9.5,1.4.5.7,0,1.4-.3,1.9-.9,3.2-4.4,4.5-9.7,3.7-15.1-.8-5.4-3.7-10.1-8-13.3-1-.8-2.5-.5-3.2.5h0Z"/>
  <path class="cls-1" d="M59.8,47.2c-.8,1-.5,2.5.5,3.2.4.3.9.5,1.4.5.7,0,1.4-.3,1.9-.9,9.6-13.1,6.8-31.6-6.3-41.3-1-.8-2.5-.5-3.2.5-.8,1-.5,2.5.5,3.2,11,8.1,13.4,23.8,5.3,34.8h0Z"/>
</svg>