<svg width="29" height="22" viewBox="0 0 29 22" fill="none" xmlns="http://www.w3.org/2000/svg">
<path d="M11.3672 12.8788C11.1736 12.7453 17.3569 7.98301 17.5569 7.75659L8.80664 11.7484C8.81972 11.9943 9.32606 17.87 9.35744 18.2796C9.4765 17.9604 11.3214 12.9823 11.3672 12.8788Z" fill="#FAFAFA"/>
<path d="M28.066 0.605463C27.7102 0.214257 27.1724 0.054659 26.6569 0.18026L1.64017 6.29286C0.334455 6.55584 0.148665 8.50137 1.38243 9.00769L7.41129 11.7775C7.40475 11.4935 7.29747 11.1194 7.5225 10.8917C7.64549 10.7033 7.89016 10.6418 8.08118 10.5502L21.9811 4.20721C22.6444 3.8304 23.3679 4.69652 22.8459 5.26829C22.7556 5.41221 12.6028 13.5513 12.6028 13.5513C11.8924 15.4719 9.50466 21.8617 9.50466 21.8617L16.0085 16.8728L20.3834 20.0403C21.137 20.6226 22.3263 20.2353 22.6024 19.3286L28.3733 2.04418C28.5408 1.54178 28.4217 0.990976 28.0659 0.606301L28.066 0.605463Z" fill="#FAFAFA"/>
</svg>
