<svg width="160" height="208" viewBox="0 0 160 208" fill="none" xmlns="http://www.w3.org/2000/svg">
<g filter="url(#filter0_i_425_4101)">
<path d="M12 71.6628C12 30.1557 42.9812 9.33106 60.2882 0C60.2882 0 79.7768 6.52795 78.6587 6.97018C46.9292 19.5188 28.416 44.6349 27.4545 71.6628C26.493 98.6907 31.23 117.031 61.0365 138.267C66.485 133.763 83.151 122.823 90.843 108.344C98.8147 93.3378 105.586 69.4105 106.227 58.1489C109.432 65.8711 110.073 87.1073 102.381 108.344C94.1519 131.063 70.331 145.668 61.0365 150.816C45.6525 144.059 12 121.895 12 71.6628Z" fill="white" fill-opacity="0.01"/>
<path fill-rule="evenodd" clip-rule="evenodd" d="M54.3587 109.798C54.3626 109.994 54.3462 110.153 54.306 110.274L54.3587 109.798Z" fill="#D9D9D9"/>
<path d="M97.5735 16.6417C91.1635 17.607 73.536 30.1557 61.0365 51.3919C43.4175 81.326 54.2678 105.3 54.3587 109.798L54.409 109.343C57.215 83.979 58.2789 74.3619 68.7285 58.1489C75.0933 48.2737 87.9585 34.9821 97.5735 30.1557C106.227 34.9821 120.717 45.799 128.342 61.0447C140.67 85.695 134.051 113.418 120.59 130.793C109.821 144.693 87.8375 155.926 79.825 159.787L99.2453 165C107.258 159.208 125.911 148.017 135.072 135.371C150.456 114.135 153.341 75.524 136.995 51.3919C123.919 32.0863 105.266 20.1811 97.5735 16.6417Z" fill="white" fill-opacity="0.01"/>
</g>
<g filter="url(#filter1_i_425_4101)">
<path d="M24.4217 192.408C25.3657 192.584 26.1417 193.056 26.7497 193.824C27.3577 194.592 27.6617 195.472 27.6617 196.464C27.6617 197.36 27.4377 198.152 26.9897 198.84C26.5577 199.512 25.9257 200.04 25.0937 200.424C24.2617 200.808 23.2777 201 22.1417 201H14.9177V184.248H21.8297C22.9657 184.248 23.9417 184.432 24.7577 184.8C25.5897 185.168 26.2137 185.68 26.6297 186.336C27.0617 186.992 27.2777 187.736 27.2777 188.568C27.2777 189.544 27.0137 190.36 26.4857 191.016C25.9737 191.672 25.2857 192.136 24.4217 192.408ZM18.2777 191.16H21.3497C22.1497 191.16 22.7657 190.984 23.1977 190.632C23.6297 190.264 23.8457 189.744 23.8457 189.072C23.8457 188.4 23.6297 187.88 23.1977 187.512C22.7657 187.144 22.1497 186.96 21.3497 186.96H18.2777V191.16ZM21.6617 198.264C22.4777 198.264 23.1097 198.072 23.5577 197.688C24.0217 197.304 24.2537 196.76 24.2537 196.056C24.2537 195.336 24.0137 194.776 23.5337 194.376C23.0537 193.96 22.4057 193.752 21.5897 193.752H18.2777V198.264H21.6617ZM43.0596 187.704L34.8276 207.288H31.2516L34.1316 200.664L28.8036 187.704H32.5716L36.0036 196.992L39.4836 187.704H43.0596ZM60.8616 197.808H54.1896L53.0856 201H49.5576L55.5816 184.224H59.4936L65.5176 201H61.9656L60.8616 197.808ZM59.9496 195.12L57.5256 188.112L55.1016 195.12H59.9496ZM84.2813 187.512C85.9133 187.512 87.2253 188.016 88.2173 189.024C89.2253 190.016 89.7293 191.408 89.7293 193.2V201H86.3693V193.656C86.3693 192.616 86.1053 191.824 85.5773 191.28C85.0493 190.72 84.3293 190.44 83.4173 190.44C82.5053 190.44 81.7773 190.72 81.2333 191.28C80.7053 191.824 80.4413 192.616 80.4413 193.656V201H77.0813V193.656C77.0813 192.616 76.8173 191.824 76.2893 191.28C75.7613 190.72 75.0413 190.44 74.1293 190.44C73.2013 190.44 72.4653 190.72 71.9213 191.28C71.3933 191.824 71.1293 192.616 71.1293 193.656V201H67.7693V187.704H71.1293V189.312C71.5613 188.752 72.1133 188.312 72.7853 187.992C73.4733 187.672 74.2253 187.512 75.0413 187.512C76.0813 187.512 77.0093 187.736 77.8253 188.184C78.6413 188.616 79.2733 189.24 79.7213 190.056C80.1533 189.288 80.7773 188.672 81.5933 188.208C82.4253 187.744 83.3213 187.512 84.2813 187.512ZM92.0537 194.304C92.0537 192.96 92.3177 191.768 92.8457 190.728C93.3897 189.688 94.1177 188.888 95.0297 188.328C95.9577 187.768 96.9897 187.488 98.1257 187.488C99.1177 187.488 99.9817 187.688 100.718 188.088C101.47 188.488 102.07 188.992 102.518 189.6V187.704H105.902V201H102.518V199.056C102.086 199.68 101.486 200.2 100.718 200.616C99.9657 201.016 99.0937 201.216 98.1017 201.216C96.9817 201.216 95.9577 200.928 95.0297 200.352C94.1177 199.776 93.3897 198.968 92.8457 197.928C92.3177 196.872 92.0537 195.664 92.0537 194.304ZM102.518 194.352C102.518 193.536 102.358 192.84 102.038 192.264C101.718 191.672 101.286 191.224 100.742 190.92C100.198 190.6 99.6137 190.44 98.9897 190.44C98.3657 190.44 97.7897 190.592 97.2617 190.896C96.7337 191.2 96.3017 191.648 95.9657 192.24C95.6457 192.816 95.4857 193.504 95.4857 194.304C95.4857 195.104 95.6457 195.808 95.9657 196.416C96.3017 197.008 96.7337 197.464 97.2617 197.784C97.8057 198.104 98.3817 198.264 98.9897 198.264C99.6137 198.264 100.198 198.112 100.742 197.808C101.286 197.488 101.718 197.04 102.038 196.464C102.358 195.872 102.518 195.168 102.518 194.352ZM112.543 189.624C112.975 189.016 113.567 188.512 114.319 188.112C115.087 187.696 115.959 187.488 116.935 187.488C118.071 187.488 119.095 187.768 120.007 188.328C120.935 188.888 121.663 189.688 122.191 190.728C122.735 191.752 123.007 192.944 123.007 194.304C123.007 195.664 122.735 196.872 122.191 197.928C121.663 198.968 120.935 199.776 120.007 200.352C119.095 200.928 118.071 201.216 116.935 201.216C115.959 201.216 115.095 201.016 114.343 200.616C113.607 200.216 113.007 199.712 112.543 199.104V207.336H109.183V187.704H112.543V189.624ZM119.575 194.304C119.575 193.504 119.407 192.816 119.071 192.24C118.751 191.648 118.319 191.2 117.775 190.896C117.247 190.592 116.671 190.44 116.047 190.44C115.439 190.44 114.863 190.6 114.319 190.92C113.791 191.224 113.359 191.672 113.023 192.264C112.703 192.856 112.543 193.552 112.543 194.352C112.543 195.152 112.703 195.848 113.023 196.44C113.359 197.032 113.791 197.488 114.319 197.808C114.863 198.112 115.439 198.264 116.047 198.264C116.671 198.264 117.247 198.104 117.775 197.784C118.319 197.464 118.751 197.008 119.071 196.416C119.407 195.824 119.575 195.12 119.575 194.304ZM127.153 186.12C126.561 186.12 126.065 185.936 125.665 185.568C125.281 185.184 125.089 184.712 125.089 184.152C125.089 183.592 125.281 183.128 125.665 182.76C126.065 182.376 126.561 182.184 127.153 182.184C127.745 182.184 128.233 182.376 128.617 182.76C129.017 183.128 129.217 183.592 129.217 184.152C129.217 184.712 129.017 185.184 128.617 185.568C128.233 185.936 127.745 186.12 127.153 186.12ZM128.809 187.704V201H125.449V187.704H128.809ZM131.265 194.304C131.265 192.96 131.529 191.768 132.057 190.728C132.601 189.688 133.329 188.888 134.241 188.328C135.169 187.768 136.201 187.488 137.337 187.488C138.329 187.488 139.193 187.688 139.929 188.088C140.681 188.488 141.281 188.992 141.729 189.6V187.704H145.113V201H141.729V199.056C141.297 199.68 140.697 200.2 139.929 200.616C139.177 201.016 138.305 201.216 137.313 201.216C136.193 201.216 135.169 200.928 134.241 200.352C133.329 199.776 132.601 198.968 132.057 197.928C131.529 196.872 131.265 195.664 131.265 194.304ZM141.729 194.352C141.729 193.536 141.569 192.84 141.249 192.264C140.929 191.672 140.497 191.224 139.953 190.92C139.409 190.6 138.825 190.44 138.201 190.44C137.577 190.44 137.001 190.592 136.473 190.896C135.945 191.2 135.513 191.648 135.177 192.24C134.857 192.816 134.697 193.504 134.697 194.304C134.697 195.104 134.857 195.808 135.177 196.416C135.513 197.008 135.945 197.464 136.473 197.784C137.017 198.104 137.593 198.264 138.201 198.264C138.825 198.264 139.409 198.112 139.953 197.808C140.497 197.488 140.929 197.04 141.249 196.464C141.569 195.872 141.729 195.168 141.729 194.352Z" fill="white" fill-opacity="0.01"/>
</g>
<defs>
<filter id="filter0_i_425_4101" x="12" y="0" width="139" height="168" filterUnits="userSpaceOnUse" color-interpolation-filters="sRGB">
<feFlood flood-opacity="0" result="BackgroundImageFix"/>
<feBlend mode="normal" in="SourceGraphic" in2="BackgroundImageFix" result="shape"/>
<feColorMatrix in="SourceAlpha" type="matrix" values="0 0 0 0 0 0 0 0 0 0 0 0 0 0 0 0 0 0 127 0" result="hardAlpha"/>
<feOffset dx="3" dy="3"/>
<feGaussianBlur stdDeviation="1.5"/>
<feComposite in2="hardAlpha" operator="arithmetic" k2="-1" k3="1"/>
<feColorMatrix type="matrix" values="0 0 0 0 0 0 0 0 0 0 0 0 0 0 0 0 0 0 0.25 0"/>
<feBlend mode="normal" in2="shape" result="effect1_innerShadow_425_4101"/>
</filter>
<filter id="filter1_i_425_4101" x="14.9177" y="182.184" width="131.195" height="26.1519" filterUnits="userSpaceOnUse" color-interpolation-filters="sRGB">
<feFlood flood-opacity="0" result="BackgroundImageFix"/>
<feBlend mode="normal" in="SourceGraphic" in2="BackgroundImageFix" result="shape"/>
<feColorMatrix in="SourceAlpha" type="matrix" values="0 0 0 0 0 0 0 0 0 0 0 0 0 0 0 0 0 0 127 0" result="hardAlpha"/>
<feOffset dx="1" dy="1"/>
<feGaussianBlur stdDeviation="1"/>
<feComposite in2="hardAlpha" operator="arithmetic" k2="-1" k3="1"/>
<feColorMatrix type="matrix" values="0 0 0 0 0 0 0 0 0 0 0 0 0 0 0 0 0 0 0.25 0"/>
<feBlend mode="normal" in2="shape" result="effect1_innerShadow_425_4101"/>
</filter>
</defs>
</svg>
